<svg width="45" height="38" viewBox="0 0 45 38" fill="none" xmlns="http://www.w3.org/2000/svg">
<path d="M23.2792 30.9913C18.7865 27.0161 14.2945 23.0413 9.80171 19.0656C14.1214 15.2438 18.441 11.4215 22.7603 7.59963C23.3275 7.09755 24.3872 6.38126 24.6618 5.61841C25.6092 2.98645 24.4923 0.985287 22.234 0.173042C19.6766 -0.747028 17.2827 2.22456 15.4508 3.84477C12.3273 6.60878 9.20383 9.37279 6.07995 12.1368C4.46989 13.5618 1.21274 15.5653 0.296393 17.7061C-1.0431 20.8345 2.49306 22.8219 4.21423 24.3452C7.258 27.0389 10.3022 29.7326 13.3455 32.4258C14.6987 33.6233 16.0515 34.8203 17.4039 36.0173C18.0585 36.5963 18.8058 37.4456 19.6058 37.733C23.6674 39.1903 27.0896 34.3629 23.2792 30.9913Z" fill="#fff"/>
<path d="M43.2792 30.9913C38.7865 27.0161 34.2945 23.0413 29.8017 19.0656C34.1214 15.2438 38.441 11.4215 42.7603 7.59963C43.3275 7.09755 44.3872 6.38126 44.6618 5.61841C45.6092 2.98645 44.4923 0.985287 42.234 0.173042C39.6766 -0.747028 37.2827 2.22456 35.4508 3.84477C32.3273 6.60878 29.2038 9.37279 26.0799 12.1368C24.4699 13.5618 21.2127 15.5653 20.2964 17.7061C18.9569 20.8345 22.4931 22.8219 24.2142 24.3452C27.258 27.0389 30.3022 29.7326 33.3455 32.4258C34.6987 33.6233 36.0515 34.8203 37.4039 36.0173C38.0585 36.5963 38.8058 37.4456 39.6058 37.733C43.6674 39.1903 47.0896 34.3629 43.2792 30.9913Z" fill="#fff"/>
</svg>
