<svg width="18" height="18" viewBox="0 0 18 18" fill="none" xmlns="http://www.w3.org/2000/svg">
<path d="M16.9756 7.84318C16.5538 7.84318 16.2124 8.18478 16.2124 8.60642C16.2124 12.3941 13.1309 15.4754 9.3434 15.4754C5.55592 15.4754 2.47442 12.3939 2.47442 8.60642C2.47442 4.81895 5.55574 1.73744 9.3434 1.73744C10.9156 1.73744 12.4062 2.26356 13.6172 3.23015L12.665 4.18239C12.4661 4.38126 12.5255 4.60104 12.7965 4.6738L16.9596 5.78909C17.2306 5.86185 17.3917 5.70066 17.3193 5.42939L16.2038 1.26636C16.131 0.99491 15.9113 0.935955 15.7126 1.13465L14.7023 2.1449C13.199 0.893418 11.324 0.21096 9.3434 0.21096C4.71433 0.21096 0.947937 3.97716 0.947937 8.60642C0.947937 13.2357 4.71433 17.0019 9.3434 17.0019C13.9727 17.0019 17.7389 13.2355 17.7389 8.60642C17.7389 8.18478 17.3973 7.84318 16.9756 7.84318Z" fill="#9C9C9C"/>
<path d="M8.4953 3.65926C8.07384 3.65926 7.73206 4.00104 7.73206 4.4225V9.96294C7.73206 10.3848 8.07384 10.7264 8.4953 10.7264H12.7919C13.2135 10.7264 13.5551 10.3848 13.5551 9.96294C13.5551 9.54167 13.2135 9.19989 12.7919 9.19989H9.25872V4.4225C9.25872 4.00104 8.91693 3.65926 8.4953 3.65926Z" fill="#9C9C9C"/>
</svg>
